HIERARCHY
ROOT Hips
{
 OFFSET 0.000000 0.000000 0.000000
 CHANNELS 6 Xposition Yposition Zposition Yrotation Xrotation Zrotation
 JOINT Chest
 {
  OFFSET 0.000000 9.585900 0.002600
  CHANNELS 3 Yrotation Xrotation Zrotation
  JOINT Chest2
  {
   OFFSET 0.000000 9.601200 -0.005300
   CHANNELS 3 Yrotation Xrotation Zrotation
   JOINT Chest3
   {
    OFFSET 0.000000 9.561800 0.000000
    CHANNELS 3 Yrotation Xrotation Zrotation
    JOINT Chest4
    {
     OFFSET 0.000000 9.552100 0.000000
     CHANNELS 3 Yrotation Xrotation Zrotation
     JOINT Neck
     {
      OFFSET 0.000000 14.453000 0.000000
      CHANNELS 3 Yrotation Xrotation Zrotation
      JOINT Head
      {
       OFFSET 0.000000 8.936500 -0.011300
       CHANNELS 3 Yrotation Xrotation Zrotation
       End Site
       {
        OFFSET 0.000000 17.073600 -0.006000
       }
      }
     }
     JOINT RightCollar
     {
      OFFSET -2.921100 9.558500 0.000000
      CHANNELS 3 Yrotation Xrotation Zrotation
      JOINT RightShoulder
      {
       OFFSET -13.519700 0.000000 0.000000
       CHANNELS 3 Yrotation Xrotation Zrotation
       JOINT RightElbow
       {
        OFFSET 0.000000 -29.696600 0.000000
        CHANNELS 3 Yrotation Xrotation Zrotation
        JOINT RightWrist
        {
         OFFSET 0.000000 -24.004700 0.000000
         CHANNELS 3 Yrotation Xrotation Zrotation
         End Site
         {
          OFFSET 0.000000 -17.728500 0.000000
         }
        }
       }
      }
     }
     JOINT LeftCollar
     {
      OFFSET 2.921100 9.558500 0.000000
      CHANNELS 3 Yrotation Xrotation Zrotation
      JOINT LeftShoulder
      {
       OFFSET 13.519700 0.000000 0.000000
       CHANNELS 3 Yrotation Xrotation Zrotation
       JOINT LeftElbow
       {
        OFFSET 0.000000 -29.696600 0.000000
        CHANNELS 3 Yrotation Xrotation Zrotation
        JOINT LeftWrist
        {
         OFFSET 0.000000 -24.004700 0.000000
         CHANNELS 3 Yrotation Xrotation Zrotation
         End Site
         {
          OFFSET 0.000000 -17.728500 0.000000
         }
        }
       }
      }
     }
    }
   }
  }
 }
 JOINT RightHip
 {
  OFFSET -7.771700 -0.012900 -0.001300
  CHANNELS 3 Yrotation Xrotation Zrotation
  JOINT RightKnee
  {
   OFFSET 0.000000 -40.869800 0.001200
   CHANNELS 3 Yrotation Xrotation Zrotation
   JOINT RightAnkle
   {
    OFFSET 0.000000 -39.717900 0.002100
    CHANNELS 3 Yrotation Xrotation Zrotation
    JOINT RightToe
    {
     OFFSET 0.000000 -4.965400 11.033500
     CHANNELS 3 Yrotation Xrotation Zrotation
     End Site
     {
      OFFSET 0.000000 -1.423100 5.872300
     }
    }
   }
  }
 }
 JOINT LeftHip
 {
  OFFSET 7.771700 -0.012900 -0.001300
  CHANNELS 3 Yrotation Xrotation Zrotation
  JOINT LeftKnee
  {
   OFFSET 0.000000 -40.869800 0.001200
   CHANNELS 3 Yrotation Xrotation Zrotation
   JOINT LeftAnkle
   {
    OFFSET 0.000000 -39.717900 0.002100
    CHANNELS 3 Yrotation Xrotation Zrotation
    JOINT LeftToe
    {
     OFFSET 0.000000 -4.965400 11.033500
     CHANNELS 3 Yrotation Xrotation Zrotation
     End Site
     {
      OFFSET 0.000000 -1.423100 5.872300
     }
    }
   }
  }
 }
}
MOTION
Frames: 8
Frame Time: 0.008333
0.000000 85.388000 0.000000 0.000000 -5.767877 0.000000 0.000000 11.653817 0.000000 0.000000 -5.885947 0.000000 0.000000 -0.000000 0.000000 0.000000 -0.000000 0.000000 0.000000 12.528835 0.000000 0.000000 0.711642 0.000000 0.000000 -0.000000 0.000000 0.000000 0.000000 -90.000000 0.000000 -2.309062 0.000000 0.000000 2.309062 0.000000 0.000000 -0.000000 0.000000 0.000000 -0.000000 90.000000 0.000000 -2.309062 0.000000 0.000000 2.309062 0.000000 0.000000 8.520406 0.000000 0.000000 1.905762 0.000000 -0.000000 -4.658285 0.000000 0.000000 -0.000000 0.000000 0.000000 8.520406 0.000000 0.000000 1.905762 0.000000 -0.000000 -4.658285 0.000000 0.000000 -0.000000 0.000000
-218.163288 57.911654 25.400176 172.002576 -48.988368 -1.593189 4.431670 23.025447 5.141819 2.154208 13.237546 2.710033 2.812016 16.521462 3.488659 2.173677 13.277207 2.722622 2.012829 18.683431 1.066007 3.383078 -1.028830 1.329296 -1.118759 5.094238 -0.031495 -17.318929 -12.591277 -5.500643 -150.572214 -50.928497 178.025589 12.698479 -23.147483 -58.422105 -14.203704 0.849272 -1.920486 -6.850171 -20.979350 14.316249 42.091265 -35.223049 -106.948550 -1.428809 6.770922 -21.309476 10.017082 -23.011635 0.360985 -45.754600 71.407683 -49.128402 3.238038 -12.939861 13.266682 -0.010753 -0.219638 -0.045881 -7.465454 -21.365056 8.408526 58.294643 77.730846 57.472711 6.870236 -15.085690 -19.718155 0.105703 0.063682 0.084520
-218.164109 57.912653 25.392931 171.983631 -49.010999 -1.562237 4.433223 23.042918 5.123543 2.155570 13.239273 2.708909 2.798479 16.480424 3.476317 2.170578 13.290355 2.720744 2.067829 18.708664 1.105158 3.472110 -0.940536 1.393025 -1.116400 5.129584 -0.029225 -17.202753 -12.629411 -5.485839 -149.984351 -51.207339 177.655542 12.628549 -23.147805 -58.420513 -14.168369 0.826681 -1.907753 -6.933338 -20.936431 14.309557 41.731761 -35.148626 -106.601960 -1.477894 6.824141 -21.255248 10.001397 -22.997538 0.326117 -45.809714 71.429242 -49.171398 3.256687 -12.945993 13.259405 0.000055 -0.226106 -0.058363 -7.411916 -21.344166 8.426458 58.372734 77.743787 57.507344 6.841226 -15.112718 -19.675634 0.069852 0.067499 0.085346
-218.164572 57.909798 25.387348 171.960051 -49.010661 -1.528698 4.419968 22.982963 5.098571 2.160343 13.267476 2.704507 2.787503 16.449394 3.467778 2.171717 13.300626 2.713782 2.121230 18.752976 1.153299 3.564579 -0.814209 1.460400 -1.108643 5.130579 -0.023119 -17.070056 -12.620652 -5.494989 -149.320869 -51.466174 177.223908 12.547682 -23.149846 -58.417342 -14.139565 0.818941 -1.895273 -6.972972 -20.879838 14.298913 41.381900 -35.032430 -106.333440 -1.513054 6.947155 -21.062326 9.944224 -23.015109 0.284615 -45.763363 71.481592 -49.158901 3.310251 -12.950951 13.240689 -0.021411 -0.242706 -0.063986 -7.357286 -21.346591 8.442282 58.335428 77.772989 57.462101 6.809711 -15.133502 -19.653606 0.091636 0.066280 0.087511
-218.162285 57.906903 25.380515 171.950369 -49.018120 -1.518039 4.409854 22.947460 5.090511 2.142091 13.214152 2.693305 2.786171 16.465020 3.466697 2.145658 13.224185 2.695028 2.198830 18.901137 1.211233 3.658406 -0.650713 1.526746 -1.069615 5.218809 -0.011086 -16.918405 -12.604299 -5.525984 -148.617793 -51.695531 176.757201 12.462161 -23.153684 -58.415312 -14.094225 0.946155 -1.913758 -7.067449 -20.874181 14.356147 41.137667 -34.839275 -106.119087 -1.525050 7.123414 -20.762314 9.908715 -23.018469 0.270332 -45.767949 71.508833 -49.174005 3.317636 -12.955034 13.235948 -0.029790 -0.246977 -0.068660 -7.317244 -21.340718 8.468667 58.295669 77.806655 57.417638 6.789504 -15.154305 -19.635072 0.114704 0.067912 0.083576
-218.159086 57.903642 25.372565 171.941212 -49.031684 -1.509400 4.396942 22.911006 5.083992 2.128596 13.178907 2.688117 2.779253 16.456010 3.462628 2.128544 13.178883 2.688138 2.262161 19.032021 1.255759 3.746546 -0.456156 1.588733 -1.032114 5.283634 -0.004212 -16.749603 -12.591945 -5.572669 -147.922510 -51.892168 176.290947 12.375808 -23.158426 -58.417902 -14.056515 1.000078 -1.930662 -7.157959 -20.824383 14.430495 40.970755 -34.640393 -105.970339 -1.521428 7.299727 -20.394138 9.871869 -23.015946 0.259399 -45.773184 71.534750 -49.192634 3.342878 -12.960572 13.229489 -0.033296 -0.253110 -0.070916 -7.279634 -21.328780 8.494611 58.263223 77.841832 57.382814 6.771435 -15.174703 -19.623855 0.119468 0.066158 0.091760
-218.154956 57.901159 25.362805 171.928237 -49.060004 -1.499372 4.387683 22.883715 5.080876 2.121491 13.157039 2.685728 2.769995 16.428750 3.459109 2.121438 13.157003 2.685722 2.296181 19.155911 1.278138 3.836411 -0.250312 1.654917 -1.009313 5.370651 -0.001680 -16.563183 -12.618294 -5.611293 -147.274972 -52.049409 175.857492 12.295030 -23.158238 -58.420407 -14.037161 1.038517 -1.953402 -7.235463 -20.772787 14.523255 40.867789 -34.502290 -105.879465 -1.510790 7.438509 -20.005594 9.837614 -22.997467 0.253748 -45.784526 71.559360 -49.216179 3.366360 -12.967906 13.223644 -0.046328 -0.252079 -0.059494 -7.241288 -21.300946 8.516225 58.199069 77.873189 57.327159 6.750967 -15.176840 -19.623277 0.133585 0.053803 0.097972
-218.150728 57.895690 25.354762 171.917759 -49.072667 -1.491496 4.378857 22.836504 5.078012 2.122326 13.176922 2.685003 2.758433 16.355833 3.454814 2.116077 13.133496 2.684061 2.323180 19.287946 1.302551 3.912021 -0.042809 1.711231 -0.984153 5.383744 0.023706 -16.361222 -12.574307 -5.696388 -146.709183 -52.164850 175.484799 12.224611 -23.151412 -58.408695 -14.029494 1.102543 -1.986400 -7.338867 -20.735841 14.650606 40.864333 -34.449594 -105.829341 -1.491938 7.515787 -19.676472 9.805146 -22.992680 0.248002 -45.763769 71.582126 -49.215839 3.385951 -12.975000 13.231077 -0.062255 -0.253003 -0.070564 -7.208641 -21.289625 8.537339 58.149209 77.903081 57.286947 6.728339 -15.190090 -19.618536 0.152799 0.051759 0.099469
